<svg width="14.907410" height="14.879883" viewBox="0 0 14.9074 14.8799" fill="none" xmlns="http://www.w3.org/2000/svg" xmlns:xlink="http://www.w3.org/1999/xlink">
	<desc>
			Created with Pixso.
	</desc>
	<defs/>
	<path id="Vector" d="M7.45538 3.625C5.34024 3.625 3.63416 5.32837 3.63416 7.43994C3.63416 9.55176 5.34024 11.2551 7.45538 11.2551C9.57053 11.2551 11.2766 9.55176 11.2766 7.43994C11.2766 5.32837 9.57053 3.625 7.45538 3.625ZM7.45538 9.92017C6.0885 9.92017 4.97107 8.80786 4.97107 7.43994C4.97107 6.07202 6.08517 4.95972 7.45538 4.95972C8.82556 4.95972 9.93967 6.07202 9.93967 7.43994C9.93967 8.80786 8.82224 9.92017 7.45538 9.92017ZM12.3242 3.46899C12.3242 3.96362 11.9251 4.35864 11.4329 4.35864C10.9374 4.35864 10.5416 3.96021 10.5416 3.46899C10.5416 2.97754 10.9407 2.5791 11.4329 2.5791C11.9251 2.5791 12.3242 2.97754 12.3242 3.46899ZM14.855 4.37207C14.7985 3.17993 14.5258 2.12427 13.6512 1.25415C12.7798 0.384277 11.7222 0.112061 10.5283 0.0522461C9.29782 -0.017334 5.60962 -0.017334 4.37912 0.0522461C3.18851 0.108643 2.13095 0.381104 1.25629 1.25098C0.381622 2.12085 0.112244 3.17676 0.0523682 4.36865C-0.0174561 5.59717 -0.0174561 9.27954 0.0523682 10.5081C0.108917 11.7 0.381622 12.7559 1.25629 13.6257C2.13095 14.4956 3.18518 14.7678 4.37912 14.8276C5.60962 14.8975 9.29782 14.8975 10.5283 14.8276C11.7222 14.7712 12.7798 14.499 13.6512 13.6257C14.5225 12.7559 14.7952 11.7 14.855 10.5081C14.9249 9.27954 14.9249 5.60059 14.855 4.37207ZM13.2654 11.8262C13.006 12.4768 12.5038 12.9783 11.8486 13.2405C10.8675 13.6292 8.53955 13.5393 7.45538 13.5393C6.37119 13.5393 4.03989 13.6257 3.06213 13.2405C2.41031 12.9817 1.90811 12.4802 1.64539 11.8262C1.25629 10.8467 1.34607 8.52246 1.34607 7.43994C1.34607 6.35767 1.25961 4.03003 1.64539 3.05396C1.90479 2.40308 2.40698 1.90161 3.06213 1.6394C4.04321 1.25098 6.37119 1.34058 7.45538 1.34058C8.53955 1.34058 10.8708 1.25415 11.8486 1.6394C12.5005 1.89844 13.0026 2.39966 13.2654 3.05396C13.6545 4.03345 13.5647 6.35767 13.5647 7.43994C13.5647 8.52246 13.6545 10.8499 13.2654 11.8262Z" fill="#000000" fill-opacity="1.000000" fill-rule="nonzero"/>
</svg>
